<svg enable-background="new 0 0 512 387" viewBox="0 0 512 387" xmlns="http://www.w3.org/2000/svg"><path d="m476.7 382.5h-441.4c-19.5 0-35.3-15.8-35.3-35.3v-300.2c0-19.5 15.8-35.3 35.3-35.3h441.4c19.5 0 35.3 15.8 35.3 35.3v300.1c0 19.6-15.8 35.4-35.3 35.4" fill="#2a273c"/><path d="m0 135.3h512v-70.6h-512z" fill="#171621"/><path d="m300.1 329.5h158.9v-88.3h-158.9z" fill="#f0c419"/><g fill="#171621"><path d="m123.5 205.9h-79.4c-4.9 0-8.8-3.9-8.8-8.8s3.9-8.8 8.8-8.8h79.3c4.9 0 8.8 3.9 8.8 8.8.1 4.9-3.8 8.8-8.7 8.8"/><path d="m238.3 205.9h-79.3c-4.9 0-8.8-3.9-8.8-8.8s3.9-8.8 8.8-8.8h79.3c4.9 0 8.8 3.9 8.8 8.8.1 4.9-3.9 8.8-8.8 8.8"/><path d="m176.6 241.2h-132.5c-4.9 0-8.8-3.9-8.8-8.8s3.9-8.8 8.8-8.8h132.4c4.9 0 8.8 3.9 8.8 8.8s-3.9 8.8-8.7 8.8"/><path d="m238.3 241.2h-26.5c-4.9 0-8.8-3.9-8.8-8.8s3.9-8.8 8.8-8.8h26.5c4.9 0 8.8 3.9 8.8 8.8s-3.9 8.8-8.8 8.8"/></g></svg>