<svg enable-background="new 0 0 8503.9 4480" viewBox="0 0 8503.9 4480" xmlns="http://www.w3.org/2000/svg"><g clip-rule="evenodd" fill-rule="evenodd"><path d="m7203.9 1276.1c-98.8 0-207.8 55.1-251.3 154.1l-461.9 1058.8-166.4-1058.8c-19.6-99-86.8-154.1-193.3-154.1h-585.1l500.5 1758.4c9.2 33.7 11 71.1 4.2 110.4-26.2 146.7-166.4 265.8-313.2 265.8h-327.7c-83.2 0-138 51.5-164.8 168.2l-72.8 435.8h577.1c301.1 0 654.6-151.3 890.5-569.5l1155.5-2169.1z" fill="#343e47"/><path d="m1523.5 751.3c172.8 0 256.3 68.9 225.9 242.2l-49.8 282.2h397l-87.5 495.8h-397.1l-108.2 613.9c-37.4 213.9 174.3 242.4 295.8 242.4 24.2 0 44.3-.5 58.7-1.4l-97.1 552.9c-30 3.2-60.9 7.3-126.3 7.3-301.4 0-871.6-80.7-759.5-716.8l122.8-698.2h-289.5l87.1-495.8h286.6l92.2-524.4h348.9z" fill="#343e47"/><path d="m4859.9 1298.4-102 578c125.8 64.2 211.9 194.7 211.9 345.4 0 198.7-149 361.5-340.7 384.9l-101.9 577.9c18 1.1 36.3 1.7 54.5 1.7 533.1 0 964.8-432 964.8-964.6 0-435.3-289.1-803.7-686.6-923.3" fill="#00a9b8"/><path d="m4405.9 2567.4c-125.7-63.9-212-195-212-345.5 0-197.4 149.3-361.5 341-384.5l101.8-578c-18.1-1.1-36.5-2-54.7-2-532.6 0-964.6 432.3-964.6 964.5 0 435.6 289.3 804.3 686.7 923.9z" fill="#00a9b8"/><g fill="#343e47"><path d="m2326.5 1276.1h341.2c172.9 0 256 69.1 225.6 242.4l-37.3 209.7c127.1-258 402.8-470.9 685.6-470.9 37.1 0 72.8 7.3 72.8 7.3l-110.3 625.1s-49.5-11.5-126.7-11.5c-150.7 0-405.6 47.8-547.4 331-33.8 69.8-59.9 154.7-77.9 257l-123.4 702.3h-635.5z"/><path d="m7639.6 3211.6c0-11.2-3.7-20.6-11.8-28.2-7.9-7.6-17.9-11.2-30.3-11.2h-41.6v78.5h41.6c12.4 0 22.5-3.9 30.3-11 8-7.5 11.8-16.6 11.8-28.1m37.4 156.7h-36.2l-51.2-91.3h-33.7v91.3h-30.9v-223.7h75.9c19.6 0 36.2 6.7 49.9 19.3 13.5 12.8 20.8 28.8 20.8 47.6 0 31.1-16.3 51.7-48.2 61.4zm86.2-111.7c0 48.2-16.9 89.2-50.6 123-33.4 34-74.2 50.9-121.5 50.9-47.1 0-87.5-16.9-121.1-50.9-33.2-33.8-49.8-74.8-49.8-123 0-48 16.6-88.9 49.8-122.9 33.7-34.1 74.1-51.1 121.1-51.1 47.2 0 88.1 16.9 121.5 51.1 33.8 34 50.6 74.9 50.6 122.9m32.1 0c0 56.4-20 104.6-59.9 144.2-39.4 39.7-87.5 60-144.2 60-56.1 0-104.2-20.4-144.2-60-39.7-39.6-59.8-87.8-59.8-144.2 0-56.2 20.1-104.3 59.8-144.3 40-39.6 88.1-59.6 144.2-59.6 56.7 0 104.8 20 144.2 59.6 39.9 40 59.9 88.1 59.9 144.3"/></g></g></svg>